<svg width="1400" height="277" viewBox="0 0 1400 277" fill="none" xmlns="http://www.w3.org/2000/svg">
<path d="M0 273.924V3.22987H69.7411C81.8249 3.22987 91.8372 4.87044 99.7781 8.15158C107.834 11.4327 114.164 16.3032 118.767 22.7629C123.37 29.2227 126.65 37.2204 128.607 46.7562C130.563 56.1895 131.541 67.1096 131.541 79.5164V85.2071C131.541 102.638 129.815 117.506 126.363 129.81C123.025 142.012 116.983 151.291 108.237 157.649C99.4903 164.006 87.1763 167.184 71.2947 167.184H46.2639V273.924H0ZM46.2639 133.194H62.1455C68.9355 133.194 73.9992 131.656 77.3366 128.58C80.6741 125.504 82.8607 120.428 83.8964 113.353C85.0473 106.176 85.6227 96.6398 85.6227 84.7457V79.5164C85.5076 64.8538 84.0691 53.7799 81.307 46.2948C78.545 38.7072 72.2729 34.9134 62.4908 34.9134H46.2639V133.194Z" fill="#F1EFE5"/>
<path d="M162.959 273.924V3.22987H239.433C255.314 3.22987 267.168 5.99833 274.994 11.5353C282.82 17.0722 287.941 25.1725 290.358 35.8362C292.889 46.4999 294.155 59.5219 294.155 74.9023C294.155 90.7953 292.314 103.305 288.631 112.43C285.064 121.453 277.698 127.503 266.535 130.579C271.829 131.399 276.26 133.348 279.827 136.424C283.395 139.397 286.272 143.806 288.459 149.651C290.645 155.393 292.199 162.827 293.12 171.952C294.155 180.975 294.673 192.049 294.673 205.174C294.673 206.199 294.673 209.07 294.673 213.787C294.673 218.503 294.673 224.092 294.673 230.551C294.788 236.909 294.903 243.266 295.019 249.623C295.134 255.98 295.306 261.415 295.536 265.926C295.767 270.438 296.054 273.104 296.4 273.924H250.136C249.79 273.411 249.503 270.797 249.273 266.08C249.157 261.261 248.985 255.16 248.755 247.777C248.64 240.395 248.524 232.448 248.409 223.938C248.409 215.427 248.409 207.071 248.409 198.868C248.409 190.562 248.409 183.231 248.409 176.874C248.409 168.774 247.719 162.673 246.338 158.571C245.072 154.367 242.655 151.445 239.088 149.805C235.635 148.164 230.629 147.19 224.069 146.882L209.223 146.113V273.924H162.959ZM209.396 114.122H227.867C233.506 114.122 237.764 112.994 240.641 110.738C243.633 108.483 245.647 104.33 246.683 98.2804C247.834 92.2308 248.409 83.5153 248.409 72.1338V70.442C248.409 60.9062 247.891 53.5749 246.856 48.4481C245.82 43.3213 243.633 39.7838 240.296 37.8356C237.074 35.8875 232.01 34.9134 225.105 34.9134H209.396V114.122Z" fill="#F1EFE5"/>
<path d="M398.076 277C382.31 277 369.42 274.026 359.408 268.079C349.511 262.132 342.203 253.314 337.485 241.625C332.766 229.936 330.407 215.479 330.407 198.253V74.4409C330.407 58.8554 332.709 45.5258 337.312 34.452C341.915 23.3781 349.223 14.8677 359.236 8.9206C369.248 2.97353 382.367 0 398.594 0C410.793 0 421.093 1.69184 429.494 5.07551C437.896 8.45919 444.686 13.3809 449.864 19.8406C455.043 26.1979 458.783 33.9906 461.085 43.2188C463.502 52.3444 464.71 62.7518 464.71 74.4409V198.253C464.71 215.479 462.409 229.936 457.805 241.625C453.317 253.314 446.182 262.132 436.4 268.079C426.617 274.026 413.843 277 398.076 277ZM398.076 241.318C403.831 241.318 408.146 239.78 411.023 236.703C413.901 233.627 415.799 228.962 416.72 222.707C417.756 216.35 418.274 208.352 418.274 198.714V72.5952C418.274 60.8036 417.008 51.7292 414.476 45.372C412.059 38.9123 406.765 35.6824 398.594 35.6824C390.193 35.6824 384.497 38.8097 381.504 45.0644C378.512 51.2165 377.016 60.3422 377.016 72.4414V198.714C377.016 208.557 377.476 216.658 378.397 223.015C379.433 229.27 381.447 233.884 384.439 236.857C387.546 239.831 392.092 241.318 398.076 241.318Z" fill="#F1EFE5"/>
<path d="M562.244 277C549.585 277 538.997 275.257 530.481 271.771C522.08 268.182 515.405 263.004 510.456 256.237C505.623 249.367 502.17 241.061 500.099 231.32C498.027 221.477 496.991 210.301 496.991 197.791V173.644H540.838V200.867C540.838 215.427 542.219 225.886 544.982 232.243C547.744 238.6 553.21 241.779 561.381 241.779C566.905 241.779 571.048 240.651 573.81 238.395C576.687 236.037 578.586 232.346 579.507 227.321C580.543 222.195 581.06 215.53 581.06 207.327C581.06 197.176 578.644 187.897 573.81 179.489C569.092 171.081 561.899 162.365 552.232 153.342L529.79 132.732C523.576 126.99 517.937 120.89 512.873 114.43C507.924 107.97 503.954 100.793 500.962 92.8973C498.085 84.8995 496.646 75.9789 496.646 66.1355C496.646 51.883 498.603 39.8351 502.515 29.9917C506.428 20.1483 513.046 12.7144 522.367 7.69017C531.689 2.56339 544.464 0 560.691 0C572.889 0 582.902 1.69184 590.728 5.07551C598.668 8.35665 604.825 13.2271 609.199 19.6868C613.687 26.044 616.852 33.8368 618.693 43.065C620.534 52.1906 621.455 62.6493 621.455 74.4409V91.2054H578.816V71.8262C578.816 63.6234 578.298 56.8047 577.263 51.3703C576.342 45.936 574.558 41.8858 571.911 39.2199C569.264 36.4514 565.409 35.0672 560.345 35.0672C555.512 35.0672 551.599 36.0413 548.607 37.9894C545.614 39.8351 543.428 42.7574 542.047 46.7562C540.781 50.6526 540.148 55.7281 540.148 61.9828C540.148 67.6222 540.954 72.4927 542.565 76.5941C544.176 80.6955 546.65 84.6432 549.988 88.437C553.325 92.2308 557.468 96.486 562.417 101.203L587.448 125.35C599.416 136.834 608.738 148.779 615.413 161.186C622.088 173.593 625.425 187.435 625.425 202.713C625.425 218.914 623.469 232.551 619.556 243.625C615.643 254.596 609.083 262.901 599.877 268.541C590.67 274.18 578.126 277 562.244 277Z" fill="#F1EFE5"/>
<path d="M658.052 273.924V3.22987H727.793C739.877 3.22987 749.889 4.87044 757.83 8.15158C765.886 11.4327 772.215 16.3032 776.819 22.7629C781.422 29.2227 784.702 37.2204 786.658 46.7562C788.615 56.1895 789.593 67.1096 789.593 79.5164V85.2071C789.593 102.638 787.867 117.506 784.414 129.81C781.077 142.012 775.035 151.291 766.289 157.649C757.542 164.006 745.228 167.184 729.347 167.184H704.316V273.924H658.052ZM704.316 133.194H720.197C726.987 133.194 732.051 131.656 735.388 128.58C738.726 125.504 740.912 120.428 741.948 113.353C743.099 106.176 743.674 96.6398 743.674 84.7457V79.5164C743.559 64.8538 742.121 53.7799 739.359 46.2948C736.597 38.7072 730.325 34.9134 720.543 34.9134H704.316V133.194Z" fill="#F1EFE5"/>
<path d="M821.011 273.924V3.22987H922.861V38.7585H867.275V117.506H920.099V152.265H867.275V238.395H924.932V273.924H821.011Z" fill="#F1EFE5"/>
<path d="M959.112 273.924V3.22987H1005.38V127.811L1051.64 3.22987H1099.46L1049.05 136.731L1103.43 273.924H1054.57L1005.72 147.497V273.924H959.112Z" fill="#F1EFE5"/>
<path d="M1190.95 277C1176.22 277 1163.96 273.975 1154.18 267.926C1144.4 261.876 1137.03 253.058 1132.08 241.471C1127.25 229.782 1124.83 215.684 1124.83 199.175V81.2082C1124.83 68.8014 1125.98 57.625 1128.29 47.6791C1130.59 37.7331 1134.33 29.2227 1139.51 22.1477C1144.69 15.0727 1151.59 9.63835 1160.22 5.84453C1168.85 2.05071 1179.5 0.153803 1192.16 0.153803C1203.67 0.153803 1213.45 1.84564 1221.5 5.22932C1229.68 8.51046 1236.29 13.2784 1241.36 19.533C1246.54 25.7877 1250.28 33.3753 1252.58 42.2959C1254.99 51.114 1256.2 61.06 1256.2 72.1338V109.354H1211.49V74.7485C1211.49 61.4188 1210.23 51.6267 1207.69 45.372C1205.16 39.0148 1200.1 35.8362 1192.5 35.8362C1184.1 35.8362 1178.46 39.2711 1175.59 46.141C1172.82 52.9084 1171.44 62.3929 1171.44 74.5947V201.021C1171.44 210.454 1172.02 218.196 1173.17 224.245C1174.43 230.192 1176.51 234.602 1179.38 237.473C1182.26 240.241 1186.29 241.625 1191.47 241.625C1199.29 241.625 1204.59 238.344 1207.35 231.782C1210.11 225.22 1211.49 214.812 1211.49 200.56V161.801H1256.89V200.098C1256.89 217.222 1254.65 231.525 1250.16 243.009C1245.67 254.391 1238.54 262.901 1228.75 268.541C1219.09 274.18 1206.49 277 1190.95 277Z" fill="#F1EFE5"/>
<path d="M1296.08 273.924V3.22987H1397.93V38.7585H1342.34V117.506H1395.17V152.265H1342.34V238.395H1400V273.924H1296.08Z" fill="#F1EFE5"/>
</svg>
